<svg width="39" height="30" viewBox="0 0 39 30" fill="none" xmlns="http://www.w3.org/2000/svg">
<path d="M2.625 0H36.375C36.8723 0 37.3492 0.175595 37.7008 0.488155C38.0525 0.800716 38.25 1.22464 38.25 1.66667V28.3333C38.25 28.7754 38.0525 29.1993 37.7008 29.5118C37.3492 29.8244 36.8723 30 36.375 30H2.625C2.12772 30 1.65081 29.8244 1.29917 29.5118C0.947544 29.1993 0.75 28.7754 0.75 28.3333V1.66667C0.75 1.22464 0.947544 0.800716 1.29917 0.488155C1.65081 0.175595 2.12772 0 2.625 0ZM19.6125 14.4717L7.59 5.39667L5.16188 7.93667L19.6369 18.8617L33.8512 7.92833L31.3988 5.40667L19.6144 14.4717H19.6125Z" fill="white"/>
</svg>
