<svg width="32" height="32" viewBox="0 0 32 32" fill="none" xmlns="http://www.w3.org/2000/svg">
<path d="M31.75 23.735V29.923C31.7502 30.3661 31.5823 30.7927 31.2803 31.1168C30.9782 31.441 30.5645 31.6385 30.1225 31.6695C29.3577 31.722 28.733 31.75 28.25 31.75C12.7852 31.75 0.25 19.2148 0.25 3.75C0.25 3.267 0.27625 2.64225 0.3305 1.8775C0.361514 1.43553 0.559017 1.02177 0.883156 0.719715C1.2073 0.417662 1.63394 0.2498 2.077 0.25H8.265C8.48207 0.249781 8.69147 0.330253 8.85252 0.475786C9.01358 0.621318 9.11479 0.82152 9.1365 1.0375C9.17675 1.44 9.2135 1.76025 9.2485 2.0035C9.59628 4.43062 10.309 6.79121 11.3625 9.00525C11.5287 9.35525 11.4202 9.7735 11.1052 9.9975L7.32875 12.696C9.63779 18.0763 13.9255 22.364 19.3057 24.673L22.0007 20.9035C22.1109 20.7495 22.2716 20.639 22.4549 20.5914C22.6381 20.5437 22.8323 20.5619 23.0035 20.6427C25.2173 21.6943 27.5773 22.4052 30.0035 22.7515C30.2467 22.7865 30.567 22.825 30.966 22.8635C31.1817 22.8856 31.3814 22.987 31.5266 23.148C31.6718 23.309 31.752 23.5182 31.7517 23.735H31.75Z" fill="white"/>
</svg>
